<?xml version="1.0" encoding="utf-8"?>
<!-- Generator: Adobe Illustrator 19.0.0, SVG Export Plug-In . SVG Version: 6.00 Build 0)  -->
<svg version="1.1" id="Capa_2" xmlns="http://www.w3.org/2000/svg" xmlns:xlink="http://www.w3.org/1999/xlink" x="0px" y="0px"
	 viewBox="0 0 345.2 125.2" style="enable-background:new 0 0 345.2 125.2;" xml:space="preserve">
<style type="text/css">
	.st0{fill:#FFFFFF;stroke:#AEAEB3;stroke-width:4.252;stroke-miterlimit:10;}
	.st1{fill:#1262A4;}
	.st2{fill:#9A999E;}
	.st3{fill:none;stroke:#9A999E;stroke-width:2;stroke-linecap:round;stroke-linejoin:round;stroke-miterlimit:10;}
	.st4{fill:#C4424A;}
</style>
<rect id="XMLID_10_" x="4.2" y="4.6" class="st0" width="336.9" height="116.2"/>
<g id="XMLID_100_">
	<path id="XMLID_101_" class="st1" d="M90.5,56.6l3.2-1.8c0.6,1.3,1.6,2.2,3.4,2.2c1.7,0,2.2-0.7,2.2-1.3c0-1-0.9-1.4-3.3-2
		c-2.4-0.7-4.7-1.8-4.7-4.9c0-3.1,2.6-4.9,5.4-4.9c2.6,0,4.7,1.3,5.9,3.6l-3.1,1.8c-0.6-1.1-1.3-1.9-2.8-1.9c-1.1,0-1.7,0.6-1.7,1.2
		c0,0.7,0.4,1.2,2.9,2c2.4,0.7,5.2,1.6,5.2,5c0,3.1-2.5,4.9-6,4.9C93.6,60.6,91.4,59,90.5,56.6z"/>
	<path id="XMLID_103_" class="st1" d="M103.5,54.6c0-3.4,2.7-6.1,6.1-6.1c3.4,0,6.1,2.6,6.1,6.1c0,3.4-2.7,6.1-6.1,6.1
		C106.2,60.6,103.5,58,103.5,54.6z M112.3,54.6c0-1.6-1.1-2.7-2.6-2.7s-2.6,1.1-2.6,2.7s1.1,2.7,2.6,2.7S112.3,56.2,112.3,54.6z"/>
	<path id="XMLID_106_" class="st1" d="M116.7,43.5h3.4v16.8h-3.4V43.5z"/>
	<path id="XMLID_108_" class="st1" d="M121.5,45.7c0-1.1,0.9-2.1,2.1-2.1c1.1,0,2.1,0.9,2.1,2.1s-0.9,2.1-2.1,2.1
		C122.4,47.8,121.5,46.9,121.5,45.7z M121.8,48.8h3.4v11.5h-3.4V48.8z"/>
	<path id="XMLID_111_" class="st1" d="M126.3,54.6c0-3.4,2.6-6.1,6.1-6.1c2.2,0,4.2,1.2,5.2,2.9l-3,1.7c-0.4-0.8-1.2-1.3-2.2-1.3
		c-1.5,0-2.6,1.1-2.6,2.7c0,1.6,1.1,2.7,2.6,2.7c1,0,1.9-0.5,2.2-1.3l3,1.7c-1,1.8-2.9,3-5.2,3C128.9,60.6,126.3,58,126.3,54.6z"/>
	<path id="XMLID_113_" class="st1" d="M137.7,45.7c0-1.1,0.9-2.1,2.1-2.1c1.1,0,2.1,0.9,2.1,2.1s-0.9,2.1-2.1,2.1
		C138.6,47.8,137.7,46.9,137.7,45.7z M138,48.8h3.4v11.5H138V48.8z"/>
	<path id="XMLID_116_" class="st1" d="M147.5,52.1v4.1c0,1,0.9,1.1,2.4,1v3.1c-4.5,0.5-5.8-0.9-5.8-4.1v-4.1h-1.8v-3.3h1.8v-2.2
		l3.4-1v3.2h2.4v3.3H147.5z"/>
	<path id="XMLID_118_" class="st1" d="M162,48.8v11.5h-3.4v-1.1c-0.6,0.9-1.8,1.4-3.3,1.4c-2.3,0-4.3-1.7-4.3-4.8v-7.1h3.4v6.6
		c0,1.4,0.9,2.1,2,2.1c1.3,0,2.1-0.7,2.1-2.4v-6.3H162z"/>
	<path id="XMLID_120_" class="st1" d="M175.4,44.2v16.1h-3.4v-1.1c-0.8,0.9-1.9,1.4-3.4,1.4c-3,0-5.5-2.6-5.5-6.1
		c0-3.4,2.5-6.1,5.5-6.1c1.5,0,2.7,0.5,3.4,1.4v-5.7H175.4z M171.9,54.6c0-1.7-1.1-2.8-2.7-2.8c-1.6,0-2.7,1.1-2.7,2.8
		s1.1,2.8,2.7,2.8C170.8,57.4,171.9,56.3,171.9,54.6z"/>
	<path id="XMLID_123_" class="st1" d="M193.6,44.2v16.1h-3.4v-1.1c-0.8,0.9-1.9,1.4-3.4,1.4c-3,0-5.5-2.6-5.5-6.1
		c0-3.4,2.5-6.1,5.5-6.1c1.5,0,2.7,0.5,3.4,1.4v-5.7H193.6z M190.2,54.6c0-1.7-1.1-2.8-2.7-2.8s-2.7,1.1-2.7,2.8s1.1,2.8,2.7,2.8
		S190.2,56.3,190.2,54.6z"/>
	<path id="XMLID_126_" class="st1" d="M201.1,57.5c0.9,0,1.7-0.4,2.2-0.9l2.8,1.6c-1.1,1.6-2.8,2.4-5,2.4c-3.9,0-6.4-2.6-6.4-6.1
		c0-3.4,2.5-6.1,6.1-6.1c3.4,0,5.8,2.6,5.8,6.1c0,0.5,0,0.9-0.1,1.4h-8.2C198.8,57.1,199.8,57.5,201.1,57.5z M203.2,53.4
		c-0.4-1.3-1.4-1.8-2.4-1.8c-1.3,0-2.2,0.6-2.5,1.8H203.2z"/>
	<path id="XMLID_129_" class="st1" d="M224.3,48.8v11.5h-3.4v-1.1c-0.8,0.9-1.9,1.4-3.4,1.4c-3,0-5.5-2.6-5.5-6.1
		c0-3.4,2.5-6.1,5.5-6.1c1.5,0,2.7,0.5,3.4,1.4v-1.1H224.3z M220.8,54.6c0-1.7-1.1-2.8-2.7-2.8s-2.7,1.1-2.7,2.8s1.1,2.8,2.7,2.8
		S220.8,56.3,220.8,54.6z"/>
	<path id="XMLID_132_" class="st1" d="M236.8,48.8v11.5h-3.4v-1.1c-0.6,0.9-1.8,1.4-3.3,1.4c-2.3,0-4.3-1.7-4.3-4.8v-7.1h3.4v6.6
		c0,1.4,0.9,2.1,2,2.1c1.3,0,2.1-0.7,2.1-2.4v-6.3H236.8z"/>
	<path id="XMLID_134_" class="st1" d="M250.2,44.2v16.1h-3.4v-1.1c-0.8,0.9-1.9,1.4-3.4,1.4c-3,0-5.5-2.6-5.5-6.1
		c0-3.4,2.5-6.1,5.5-6.1c1.5,0,2.7,0.5,3.4,1.4v-5.7H250.2z M246.7,54.6c0-1.7-1.2-2.8-2.7-2.8c-1.6,0-2.7,1.1-2.7,2.8
		s1.1,2.8,2.7,2.8C245.6,57.4,246.7,56.3,246.7,54.6z"/>
	<path id="XMLID_137_" class="st1" d="M251.4,45.7c0-1.1,0.9-2.1,2.1-2.1s2.1,0.9,2.1,2.1s-0.9,2.1-2.1,2.1S251.4,46.9,251.4,45.7z
		 M251.8,48.8h3.4v11.5h-3.4V48.8z"/>
	<path id="XMLID_140_" class="st1" d="M262.7,57.5c0.9,0,1.7-0.4,2.2-0.9l2.8,1.6c-1.1,1.6-2.8,2.4-5,2.4c-3.9,0-6.4-2.6-6.4-6.1
		c0-3.4,2.5-6.1,6.1-6.1c3.4,0,5.8,2.6,5.8,6.1c0,0.5,0,0.9-0.1,1.4h-8.2C260.4,57.1,261.4,57.5,262.7,57.5z M264.8,53.4
		c-0.4-1.3-1.4-1.8-2.4-1.8c-1.3,0-2.2,0.6-2.5,1.8H264.8z"/>
	<path id="XMLID_143_" class="st1" d="M280.3,53.2v7.1h-3.4v-6.6c0-1.4-0.9-2.1-2-2.1c-1.3,0-2.1,0.7-2.1,2.4v6.3h-3.4V48.8h3.4v1.1
		c0.6-0.9,1.8-1.4,3.3-1.4C278.3,48.5,280.3,50.1,280.3,53.2z"/>
	<path id="XMLID_145_" class="st1" d="M281.2,54.6c0-3.4,2.6-6.1,6.1-6.1c2.2,0,4.2,1.2,5.2,2.9l-3,1.7c-0.4-0.8-1.2-1.3-2.2-1.3
		c-1.5,0-2.6,1.1-2.6,2.7c0,1.6,1.1,2.7,2.6,2.7c1,0,1.9-0.5,2.2-1.3l3,1.7c-1,1.8-2.9,3-5.2,3C283.8,60.6,281.2,58,281.2,54.6z"/>
	<path id="XMLID_147_" class="st1" d="M292.6,45.7c0-1.1,0.9-2.1,2.1-2.1s2.1,0.9,2.1,2.1s-0.9,2.1-2.1,2.1S292.6,46.9,292.6,45.7z
		 M292.9,48.8h3.4v11.5h-3.4V48.8z"/>
	<path id="XMLID_150_" class="st1" d="M309.8,48.8v11.5h-3.4v-1.1c-0.8,0.9-1.9,1.4-3.4,1.4c-3,0-5.5-2.6-5.5-6.1
		c0-3.4,2.5-6.1,5.5-6.1c1.5,0,2.7,0.5,3.4,1.4v-1.1H309.8z M306.3,54.6c0-1.7-1.2-2.8-2.7-2.8c-1.6,0-2.7,1.1-2.7,2.8
		s1.2,2.8,2.7,2.8C305.2,57.4,306.3,56.3,306.3,54.6z"/>
	<path id="XMLID_153_" class="st1" d="M320.2,56.9c0,2.6-2.3,3.8-4.8,3.8c-2.3,0-4-0.9-4.9-2.7l3-1.7c0.3,0.9,0.9,1.4,2,1.4
		c0.8,0,1.2-0.3,1.2-0.7c0-1.3-5.7-0.6-5.7-4.6c0-2.5,2.1-3.8,4.5-3.8c1.9,0,3.5,0.8,4.5,2.5l-2.9,1.6c-0.3-0.6-0.8-1-1.5-1
		c-0.6,0-1,0.2-1,0.6C314.6,53.5,320.2,52.6,320.2,56.9z"/>
</g>
<g id="XMLID_6_">
	<path id="XMLID_7_" class="st1" d="M103.6,80.1v4.3H92.2V64.9h4.5v15.2H103.6z"/>
	<path id="XMLID_64_" class="st1" d="M111.3,81.1c1.1,0,2.1-0.4,2.7-1.1l3.3,1.9c-1.4,1.9-3.4,2.9-6.1,2.9c-4.8,0-7.7-3.2-7.7-7.4
		s3-7.4,7.4-7.4c4.1,0,7.1,3.1,7.1,7.4c0,0.6-0.1,1.1-0.2,1.7h-9.9C108.5,80.6,109.7,81.1,111.3,81.1z M113.8,76
		c-0.4-1.6-1.7-2.2-3-2.2c-1.6,0-2.6,0.8-3,2.2H113.8z"/>
	<path id="XMLID_76_" class="st1" d="M131.9,70.5L127.1,84c-1.6,4.4-4,6.2-7.9,6v-3.9c1.9,0,2.9-0.6,3.5-2.3l-5.5-13.3h4.6l3.1,8.5
		l2.6-8.5H131.9z"/>
	<path id="XMLID_78_" class="st1" d="M152.5,64.9v19.5h-4.2v-1.3c-0.9,1.1-2.3,1.7-4.1,1.7c-3.6,0-6.7-3.2-6.7-7.4s3-7.4,6.7-7.4
		c1.9,0,3.2,0.6,4.1,1.7v-6.9H152.5z M148.3,77.5c0-2.1-1.4-3.4-3.3-3.4s-3.3,1.3-3.3,3.4s1.4,3.4,3.3,3.4S148.3,79.5,148.3,77.5z"
		/>
	<path id="XMLID_82_" class="st1" d="M161.5,81.1c1.1,0,2.1-0.4,2.7-1.1l3.3,1.9c-1.4,1.9-3.4,2.9-6.1,2.9c-4.8,0-7.7-3.2-7.7-7.4
		s3-7.4,7.4-7.4c4.1,0,7.1,3.1,7.1,7.4c0,0.6-0.1,1.1-0.2,1.7h-9.9C158.7,80.6,160,81.1,161.5,81.1z M164,76c-0.4-1.6-1.7-2.2-3-2.2
		c-1.6,0-2.6,0.8-3,2.2H164z"/>
	<path id="XMLID_87_" class="st1" d="M186.9,80.1v4.3h-11.4V64.9h4.5v15.2H186.9z"/>
	<path id="XMLID_89_" class="st1" d="M186.7,77.5c0-4.1,3.3-7.4,7.4-7.4c4.1,0,7.4,3.2,7.4,7.4s-3.3,7.4-7.4,7.4
		C190,84.8,186.7,81.6,186.7,77.5z M197.3,77.5c0-2-1.4-3.3-3.2-3.3s-3.2,1.3-3.2,3.3s1.4,3.3,3.2,3.3S197.3,79.4,197.3,77.5z"/>
	<path id="XMLID_92_" class="st1" d="M217.7,77.5c0,4.1-3,7.4-6.7,7.4c-1.9,0-3.2-0.6-4.1-1.7v1.3h-4.2V64.9h4.2v6.9
		c0.9-1.1,2.3-1.7,4.1-1.7C214.7,70.1,217.7,73.3,217.7,77.5z M213.5,77.5c0-2.1-1.4-3.4-3.3-3.4s-3.3,1.3-3.3,3.4s1.4,3.4,3.3,3.4
		S213.5,79.5,213.5,77.5z"/>
	<path id="XMLID_95_" class="st1" d="M233.9,77.5c0,4.1-3,7.4-6.7,7.4c-1.9,0-3.2-0.6-4.1-1.7v1.3H219V64.9h4.2v6.9
		c0.9-1.1,2.3-1.7,4.1-1.7C230.9,70.1,233.9,73.3,233.9,77.5z M229.8,77.5c0-2.1-1.4-3.4-3.3-3.4s-3.3,1.3-3.3,3.4s1.4,3.4,3.3,3.4
		S229.8,79.5,229.8,77.5z"/>
	<path id="XMLID_98_" class="st1" d="M247.9,70.5L243.1,84c-1.6,4.4-4,6.2-7.9,6v-3.9c1.9,0,2.9-0.6,3.5-2.3l-5.5-13.3h4.6l3.1,8.5
		l2.6-8.5H247.9z"/>
</g>
<g id="XMLID_60_">
	<g id="XMLID_215_">
		<g id="XMLID_216_">
			<path id="XMLID_234_" class="st2" d="M51.2,55.3c0,1.1-0.9,2-2,2l0,0c-1.1,0-2-0.9-2-2V49c0-1.1,0.9-2,2-2l0,0c1.1,0,2,0.9,2,2
				V55.3z"/>
			<path id="XMLID_233_" class="st2" d="M72,55.3c0,1.1-0.9,2-2,2l0,0c-1.1,0-2-0.9-2-2V49c0-1.1,0.9-2,2-2l0,0c1.1,0,2,0.9,2,2
				V55.3z"/>
			<path id="XMLID_230_" class="st2" d="M78.7,53.5h-5.5v1.7c0,1.8-1.5,3.2-3.2,3.2c-1.8,0-3.2-1.5-3.2-3.2v-1.7H52.5v1.7
				c0,1.8-1.5,3.2-3.2,3.2c-1.8,0-3.2-1.5-3.2-3.2v-1.7h-5.5c-1.7,0-3,1.3-3,3v30c0,1.7,1.3,3,3,3h38.2c1.7,0,3-1.3,3-3v-30
				C81.7,54.9,80.4,53.5,78.7,53.5z M78.6,85.7H40.6V62.3h38.1V85.7z"/>
			<path id="XMLID_229_" class="st2" d="M48.3,75.8c0,0.3-0.3,0.6-0.6,0.6h-3.6c-0.3,0-0.6-0.3-0.6-0.6v-3.6c0-0.3,0.3-0.6,0.6-0.6
				h3.6c0.3,0,0.6,0.3,0.6,0.6V75.8z"/>
			<path id="XMLID_228_" class="st2" d="M48.3,83.1c0,0.3-0.3,0.6-0.6,0.6h-3.6c-0.3,0-0.6-0.3-0.6-0.6v-3.6c0-0.3,0.3-0.6,0.6-0.6
				h3.6c0.3,0,0.6,0.3,0.6,0.6V83.1z"/>
			<path id="XMLID_227_" class="st2" d="M55.1,75.8c0,0.3-0.3,0.6-0.6,0.6H51c-0.3,0-0.6-0.3-0.6-0.6v-3.6c0-0.3,0.3-0.6,0.6-0.6
				h3.6c0.3,0,0.6,0.3,0.6,0.6V75.8z"/>
			<path id="XMLID_226_" class="st2" d="M55.1,83.1c0,0.3-0.3,0.6-0.6,0.6H51c-0.3,0-0.6-0.3-0.6-0.6v-3.6c0-0.3,0.3-0.6,0.6-0.6
				h3.6c0.3,0,0.6,0.3,0.6,0.6V83.1z"/>
			<path id="XMLID_225_" class="st2" d="M62,68.5c0,0.3-0.3,0.6-0.6,0.6h-3.6c-0.3,0-0.6-0.3-0.6-0.6v-3.6c0-0.3,0.3-0.6,0.6-0.6
				h3.6c0.3,0,0.6,0.3,0.6,0.6V68.5z"/>
			<path id="XMLID_224_" class="st2" d="M62,75.8c0,0.3-0.3,0.6-0.6,0.6h-3.6c-0.3,0-0.6-0.3-0.6-0.6v-3.6c0-0.3,0.3-0.6,0.6-0.6
				h3.6c0.3,0,0.6,0.3,0.6,0.6V75.8z"/>
			<path id="XMLID_223_" class="st2" d="M62,83.1c0,0.3-0.3,0.6-0.6,0.6h-3.6c-0.3,0-0.6-0.3-0.6-0.6v-3.6c0-0.3,0.3-0.6,0.6-0.6
				h3.6c0.3,0,0.6,0.3,0.6,0.6V83.1z"/>
			<path id="XMLID_222_" class="st2" d="M68.8,68.5c0,0.3-0.3,0.6-0.6,0.6h-3.6c-0.3,0-0.6-0.3-0.6-0.6v-3.6c0-0.3,0.3-0.6,0.6-0.6
				h3.6c0.3,0,0.6,0.3,0.6,0.6V68.5z"/>
			<path id="XMLID_221_" class="st2" d="M68.8,75.8c0,0.3-0.3,0.6-0.6,0.6h-3.6c-0.3,0-0.6-0.3-0.6-0.6v-3.6c0-0.3,0.3-0.6,0.6-0.6
				h3.6c0.3,0,0.6,0.3,0.6,0.6V75.8z"/>
			<path id="XMLID_220_" class="st2" d="M68.8,83.1c0,0.3-0.3,0.6-0.6,0.6h-3.6c-0.3,0-0.6-0.3-0.6-0.6v-3.6c0-0.3,0.3-0.6,0.6-0.6
				h3.6c0.3,0,0.6,0.3,0.6,0.6V83.1z"/>
			<path id="XMLID_219_" class="st2" d="M75.7,68.5c0,0.3-0.3,0.6-0.6,0.6h-3.6c-0.3,0-0.6-0.3-0.6-0.6v-3.6c0-0.3,0.3-0.6,0.6-0.6
				h3.6c0.3,0,0.6,0.3,0.6,0.6V68.5z"/>
			<path id="XMLID_218_" class="st2" d="M75.7,75.8c0,0.3-0.3,0.6-0.6,0.6h-3.6c-0.3,0-0.6-0.3-0.6-0.6v-3.6c0-0.3,0.3-0.6,0.6-0.6
				h3.6c0.3,0,0.6,0.3,0.6,0.6V75.8z"/>
			<path id="XMLID_217_" class="st2" d="M75.7,83.1c0,0.3-0.3,0.6-0.6,0.6h-3.6c-0.3,0-0.6-0.3-0.6-0.6v-3.6c0-0.3,0.3-0.6,0.6-0.6
				h3.6c0.3,0,0.6,0.3,0.6,0.6V83.1z"/>
		</g>
	</g>
</g>
<g id="XMLID_16_">
	<g id="XMLID_59_">
		<path id="XMLID_4_" class="st3" d="M38.7,50v-4.6c0-1.6-1.3-2.8-2.8-2.8l0,0c-1.6,0-2.8,1.3-2.8,2.8V49"/>
		<path id="XMLID_3_" class="st3" d="M33,49v-4.6c0-1.6-1.3-2.8-2.8-2.8h0c-1.6,0-2.8,1.3-2.8,2.8V49"/>
		<path id="XMLID_62_" class="st3" d="M34.1,70.2c-9.7,2.1-13.8-5.9-17.1-13.3c-1-2.2-6.5-14.1-0.4-13.6c3.4,0.3,4.1,5.7,5,8.2"/>
		<path id="XMLID_63_" class="st3" d="M38.7,50c-0.1-2.2,0-5.7,3.2-5.3c3,0.4,2.8,4,2.7,6.3"/>
		<path id="XMLID_5_" class="st3" d="M21.6,51.5V32.8c0-0.8,0.3-1.5,0.8-2s1.2-0.8,2-0.8c1.6,0,2.9,1.3,2.9,2.8V49"/>
	</g>
</g>
<rect id="XMLID_2_" x="190.1" y="6.7" class="st4" width="148.9" height="6.5"/>
<rect id="XMLID_1_" x="92.9" y="6.7" class="st1" width="97.2" height="6.5"/>
</svg>
